<svg width="50" height="50" viewBox="0 0 50 50" fill="none" xmlns="http://www.w3.org/2000/svg">
<path d="M13.9632 50.0002C10.8099 50.0002 7.75208 48.8536 5.36317 46.4647C3.06982 44.1713 1.82764 41.1135 1.82764 37.8647C1.82764 34.6158 3.06982 31.558 5.36317 29.2646L31.45 3.27321C33.2656 1.45762 35.5589 0.597649 37.9478 0.693202C40.2412 0.788754 42.5345 1.83983 44.3501 3.65542C46.0702 5.37547 47.1212 7.66882 47.2168 9.96208C47.3123 12.351 46.4524 14.6443 44.7323 16.4599L20.1744 40.9223C19.1233 41.9734 17.7855 42.5468 16.3521 42.5468C14.9187 42.5468 13.581 41.9735 12.5298 40.9223C11.4787 39.8713 10.9053 38.5334 10.9053 37.1C10.9053 35.6667 11.4786 34.3289 12.5298 33.2777L29.1566 16.6509C29.5388 16.2687 30.1121 16.2687 30.4944 16.6509C30.8766 17.0332 30.8766 17.6065 30.4944 17.9888L13.8676 34.6156C13.1988 35.2844 12.8166 36.1445 12.8166 37.1C12.8166 38.0556 13.1988 38.9156 13.8676 39.5845C15.2055 40.9223 17.4987 40.9223 18.8366 39.5845L43.2989 15.1221C44.6368 13.7843 45.4012 11.9688 45.3056 10.1532C45.2101 8.33759 44.3501 6.52209 42.9167 5.08871C41.4834 3.65533 39.6679 2.79535 37.8523 2.6998C36.0367 2.60425 34.2212 3.27312 32.8833 4.7065L6.70101 30.6978C4.78986 32.609 3.73878 35.189 3.73878 37.9601C3.73878 40.7312 4.78986 43.3112 6.70101 45.2224C10.7144 49.2358 17.2122 49.2358 21.13 45.2224L47.2168 19.1356C47.599 18.7534 48.1723 18.7534 48.5546 19.1356C48.9369 19.5178 48.9368 20.0911 48.5546 20.4734L22.5633 46.4646C20.1744 48.8535 17.1166 50.0002 13.9632 50.0002Z" fill="#049DD9"/>
<path d="M13.2942 49.331C10.1409 49.331 7.08314 48.1844 4.69423 45.7955C2.40087 43.5021 1.15869 40.4443 1.15869 37.1955C1.15869 33.9466 2.40087 30.8888 4.69423 28.5955L30.781 2.50857C32.5011 0.788533 34.7944 -0.166991 37.2789 0.024114C39.5722 0.119666 41.8656 1.17074 43.6812 2.98634C45.4968 4.80193 46.4523 6.99973 46.6434 9.38864C46.739 11.7775 45.879 14.0709 44.1589 15.8865L19.5054 40.2533C17.4032 42.3556 13.9632 42.3556 11.861 40.2533C10.8099 39.2023 10.2365 37.8644 10.2365 36.431C10.2365 34.9977 10.8098 33.6599 11.861 32.6088L28.4878 15.982C28.87 15.5997 29.4433 15.5997 29.8256 15.982C30.2079 16.3642 30.2078 16.9375 29.8256 17.3198L13.1987 33.9465C12.5298 34.6154 12.1476 35.4754 12.1476 36.4309C12.1476 37.3865 12.5298 38.2465 13.1987 38.9154C14.5365 40.2532 16.8298 40.2532 18.1676 38.9154L42.63 14.453C43.9678 13.1152 44.7323 11.2997 44.6367 9.48409C44.5411 7.6685 43.6812 5.85301 42.2478 4.41962C40.8144 2.98624 38.9989 2.12627 37.1833 2.03071C35.3677 1.93516 33.5522 2.60403 32.2144 4.03741L6.03196 30.0287C4.12081 31.9399 3.06974 34.5199 3.06974 37.291C3.06974 40.0621 4.12081 42.6421 6.03196 44.5533C10.0454 48.5667 16.5431 48.5667 20.461 44.5533L46.5477 18.4665C46.93 18.0843 47.5033 18.0843 47.8856 18.4665C48.2678 18.8487 48.2678 19.422 47.8856 19.8043L21.8943 45.7955C19.5054 48.1844 16.352 49.331 13.2942 49.331Z" fill="#049DD9"/>
</svg>
