<svg width="40" height="40" viewBox="0 0 40 40" fill="none" xmlns="http://www.w3.org/2000/svg">
<circle cx="20" cy="20" r="20" fill="#168DE2" fill-opacity="0.5"/>
<g clip-path="url(#clip0_229_343)">
<path d="M10.0177 26.2905C9.25386 26.2905 8.63232 25.669 8.63232 24.9051V12.3565C8.63232 11.5926 9.25386 10.9711 10.0177 10.9711H29.476C30.2398 10.9711 30.8614 11.5926 30.8614 12.3565V24.9051C30.8614 25.669 30.2398 26.2905 29.476 26.2905H10.0177Z" fill="#CECECE"/>
<path d="M9.27513 24.9051V12.3565C9.27513 11.5926 9.89666 10.9711 10.6605 10.9711H10.0177C9.25386 10.9711 8.63232 11.5926 8.63232 12.3565V24.9051C8.63232 25.669 9.25386 26.2905 10.0177 26.2905H10.6605C9.89666 26.2905 9.27513 25.669 9.27513 24.9051Z" fill="#AFAFAF"/>
<path d="M30.2184 24.9051V12.3565C30.2184 11.5926 29.5969 10.9711 28.833 10.9711H29.4758C30.2397 10.9711 30.8612 11.5926 30.8612 12.3565V24.9051C30.8612 25.669 30.2397 26.2905 29.4758 26.2905H28.833C29.5969 26.2905 30.2184 25.669 30.2184 24.9051Z" fill="#E2E2E2"/>
<path d="M30.0088 23.6885C30.0088 23.9815 29.769 24.2213 29.476 24.2213H10.0177C9.72468 24.2213 9.48486 23.9815 9.48486 23.6885V12.3564C9.48486 12.0634 9.72468 11.8235 10.0177 11.8235H29.476C29.769 11.8235 30.0088 12.0634 30.0088 12.3564V23.6885Z" fill="#63BCE7"/>
<path d="M10.1277 23.6885V12.3564C10.1277 12.0634 10.3675 11.8235 10.6605 11.8235H10.0177C9.72468 11.8235 9.48486 12.0634 9.48486 12.3564V23.6885C9.48486 23.9815 9.72468 24.2213 10.0177 24.2213H10.6605C10.3675 24.2213 10.1277 23.9815 10.1277 23.6885Z" fill="#6377E7"/>
<path d="M29.3658 23.6885V12.3564C29.3658 12.0634 29.126 11.8235 28.833 11.8235H29.4758C29.7688 11.8235 30.0086 12.0634 30.0086 12.3564V23.6885C30.0086 23.9815 29.7688 24.2213 29.4758 24.2213H28.833C29.126 24.2213 29.3658 23.9815 29.3658 23.6885Z" fill="#63E2E7"/>
<path d="M15.8745 28.537H23.6183V29.4694H15.8745V28.537Z" fill="#CECECE"/>
<path d="M15.8745 28.537H16.5173V29.4694H15.8745V28.537Z" fill="#AFAFAF"/>
<path d="M16.9761 26.2903H22.5175V28.5368H16.9761V26.2903Z" fill="#9E9E9E"/>
<path d="M16.9761 26.2903H17.6189V28.5368H16.9761V26.2903Z" fill="#707070"/>
<path d="M19.7467 25.7121C19.9987 25.7121 20.2029 25.5079 20.2029 25.2559C20.2029 25.004 19.9987 24.7997 19.7467 24.7997C19.4948 24.7997 19.2905 25.004 19.2905 25.2559C19.2905 25.5079 19.4948 25.7121 19.7467 25.7121Z" fill="#F8AF23"/>
<path d="M27.6533 15.8711C29.5674 15.8711 31.1191 14.3194 31.1191 12.4053C31.1191 10.4912 29.5674 8.93951 27.6533 8.93951C25.7392 8.93951 24.1875 10.4912 24.1875 12.4053C24.1875 14.3194 25.7392 15.8711 27.6533 15.8711Z" fill="#F8AF23"/>
<path d="M27.6534 8.93951C27.545 8.93951 27.4379 8.94515 27.332 8.95494C29.0954 9.11722 30.4765 10.5997 30.4765 12.4054C30.4765 14.2111 29.0955 15.6936 27.332 15.8559C27.4379 15.8655 27.545 15.8713 27.6534 15.8713C29.5676 15.8713 31.1193 14.3196 31.1193 12.4055C31.1193 10.4911 29.5676 8.93951 27.6534 8.93951Z" fill="#F8D323"/>
<path d="M28.6586 10.8709L27.0951 12.6557L26.5826 12.2417C26.3544 12.0576 26.0201 12.0927 25.8358 12.3201C25.6511 12.547 25.6861 12.8804 25.9139 13.0646L27.2218 14.1206L29.4586 11.5675C29.6515 11.3472 29.6289 11.0128 29.4079 10.8204C29.1871 10.6283 28.8512 10.6506 28.6586 10.8709Z" fill="#F46275"/>
<path d="M10.8467 13.4086H14.6046V14.2655H10.8467V13.4086Z" fill="#F8AF23"/>
<path d="M10.8467 15.5012H14.6046V16.3581H10.8467V15.5012Z" fill="#F8AF23"/>
<path d="M10.8467 17.5943H14.6046V18.4512H10.8467V17.5943Z" fill="#F8AF23"/>
<path d="M10.8467 19.687H14.6046V20.5438H10.8467V19.687Z" fill="#F8AF23"/>
<path d="M10.8467 21.7796H14.6046V22.6365H10.8467V21.7796Z" fill="#F8AF23"/>
<path d="M19.7468 22.4633C22.1993 22.4633 24.1875 20.4751 24.1875 18.0226C24.1875 15.5701 22.1993 13.5819 19.7468 13.5819C17.2943 13.5819 15.3062 15.5701 15.3062 18.0226C15.3062 20.4751 17.2943 22.4633 19.7468 22.4633Z" fill="#F46275"/>
<path d="M29.177 25.7235C29.6543 26.2009 29.6543 26.9749 29.177 27.4524C28.6996 27.9297 27.9256 27.9297 27.4481 27.4524L24.1622 24.1665C23.6849 23.6891 23.6849 22.9151 24.1622 22.4376C24.6396 21.9603 25.4136 21.9603 25.8911 22.4376L29.177 25.7235Z" fill="#63BCE7"/>
<path d="M19.7469 20.7313C21.243 20.7313 22.4558 19.5185 22.4558 18.0224C22.4558 16.5264 21.243 15.3136 19.7469 15.3136C18.2509 15.3136 17.0381 16.5264 17.0381 18.0224C17.0381 19.5185 18.2509 20.7313 19.7469 20.7313Z" fill="#63BCE7"/>
<path d="M19.747 17.9271C20.2203 17.9271 20.6039 17.5434 20.6039 17.0702C20.6039 16.5969 20.2203 16.2133 19.747 16.2133C19.2738 16.2133 18.8901 16.5969 18.8901 17.0702C18.8901 17.5434 19.2738 17.9271 19.747 17.9271Z" fill="#9E9E9E"/>
<path d="M20.9329 19.8317H18.5605V18.7501C18.5605 18.2958 18.9288 17.9274 19.3832 17.9274H20.1102C20.5645 17.9274 20.9329 18.2957 20.9329 18.7501V19.8317Z" fill="#F8AF23"/>
<path d="M19.7466 25.8606C20.08 25.8606 20.3511 25.5894 20.3511 25.256C20.3511 24.9227 20.08 24.6515 19.7466 24.6515C19.4133 24.6515 19.1421 24.9227 19.1421 25.256C19.1421 25.5894 19.4133 25.8606 19.7466 25.8606ZM19.7466 24.9481C19.9164 24.9481 20.0545 25.0862 20.0545 25.256C20.0545 25.4257 19.9164 25.5638 19.7466 25.5638C19.5768 25.5638 19.4388 25.4257 19.4388 25.256C19.4388 25.0862 19.5768 24.9481 19.7466 24.9481Z" fill="#3F3679"/>
<path d="M9.79051 30.4063H8.01015C7.92817 30.4063 7.86182 30.4727 7.86182 30.5547C7.86182 30.6367 7.92817 30.703 8.01015 30.703H9.79051C9.8725 30.703 9.93885 30.6367 9.93885 30.5547C9.93885 30.4727 9.8725 30.4063 9.79051 30.4063Z" fill="#3F3679"/>
<path d="M31.4834 30.4063H29.703C29.621 30.4063 29.5547 30.4727 29.5547 30.5547C29.5547 30.6367 29.621 30.703 29.703 30.703H31.4834C31.5654 30.703 31.6317 30.6367 31.6317 30.5547C31.6317 30.4727 31.5654 30.4063 31.4834 30.4063Z" fill="#3F3679"/>
<path d="M28.6946 30.4063H10.7992C10.7172 30.4063 10.6509 30.4727 10.6509 30.5547C10.6509 30.6367 10.7172 30.703 10.7992 30.703H28.6947C28.7767 30.703 28.843 30.6367 28.843 30.5547C28.843 30.4727 28.7766 30.4063 28.6946 30.4063Z" fill="#3F3679"/>
<path d="M8.01015 29.6177H15.8748H23.6186H31.4833C31.5652 29.6177 31.6316 29.5513 31.6316 29.4693C31.6316 29.3874 31.5652 29.321 31.4833 29.321H23.767V28.5369C23.767 28.4549 23.7006 28.3886 23.6186 28.3886H22.6658V26.4388H26.2246L27.3432 27.5575C27.6104 27.8248 27.9614 27.9583 28.3125 27.9583C28.6634 27.9583 29.0145 27.8247 29.2817 27.5575C29.5904 27.2488 29.7196 26.8286 29.6718 26.4255C30.4317 26.3292 31.0096 25.6855 31.0096 24.9052V13.7639C31.0096 13.7583 31.0085 13.753 31.0079 13.7474C31.1746 13.3322 31.2674 12.8795 31.2674 12.4053C31.2674 10.4124 29.646 8.79105 27.6533 8.79105C26.2277 8.79105 24.9927 9.62085 24.4047 10.8227H10.0176C9.17194 10.8227 8.48395 11.5107 8.48395 12.3564V24.9051C8.48395 25.7508 9.17194 26.4388 10.0176 26.4388H16.8277V28.3886H15.8749C15.7929 28.3886 15.7265 28.4549 15.7265 28.5369V29.321H8.01015C7.92817 29.321 7.86182 29.3874 7.86182 29.4693C7.86182 29.5513 7.92817 29.6177 8.01015 29.6177ZM29.0719 27.3476C28.6532 27.7663 27.9717 27.7663 27.5529 27.3476L24.267 24.0617C23.8482 23.6429 23.8482 22.9615 24.267 22.5427C24.4699 22.3399 24.7396 22.2281 25.0266 22.2281C25.3135 22.2281 25.5831 22.3399 25.7861 22.5427L29.072 25.8286C29.2748 26.0316 29.3865 26.3012 29.3865 26.5881C29.3865 26.875 29.2748 27.1448 29.0719 27.3476ZM27.6532 16.0195C28.4837 16.0195 29.2493 15.7371 29.8603 15.2642V23.6885C29.8603 23.9005 29.6879 24.073 29.4758 24.073H27.7358L25.9958 22.333C25.4969 21.834 24.7059 21.8011 24.168 22.234L23.0937 21.1597C24.7788 19.3632 24.7455 16.5316 22.9915 14.7775C22.1248 13.9107 20.9724 13.4334 19.7466 13.4334C18.5208 13.4334 17.3684 13.9107 16.5017 14.7775C14.7125 16.5668 14.7125 19.4781 16.5017 21.2673C17.3684 22.1341 18.5208 22.6114 19.7466 22.6114C20.9227 22.6114 22.0305 22.1709 22.8841 21.3696L23.9582 22.4437C23.7624 22.6864 23.6556 22.986 23.6556 23.3022C23.6556 23.5814 23.739 23.8474 23.8931 24.073H10.0176C9.80555 24.073 9.63308 23.9005 9.63308 23.6885V12.3564C9.63308 12.1444 9.80555 11.9719 10.0176 11.9719H24.0659C24.0488 12.1141 24.039 12.2586 24.039 12.4054C24.039 14.3981 25.6603 16.0195 27.6532 16.0195ZM19.7467 22.3147C18.6001 22.3147 17.5223 21.8682 16.7116 21.0576C15.038 19.384 15.038 16.6609 16.7116 14.9873C17.5223 14.1766 18.6001 13.7301 19.7467 13.7301C20.8933 13.7301 21.9711 14.1766 22.7818 14.9873C24.4554 16.6609 24.4554 19.384 22.7818 21.0576C21.9711 21.8683 20.8933 22.3147 19.7467 22.3147ZM30.7129 24.9051C30.7129 25.5446 30.2315 26.0697 29.604 26.1341C29.5382 25.9459 29.4318 25.7689 29.2817 25.6188L28.0326 24.3697H29.4759C29.8515 24.3697 30.1571 24.0641 30.1571 23.6885V15.0079C30.3687 14.8042 30.5556 14.5753 30.713 14.3256V24.9051H30.7129ZM27.6532 9.08772C29.4825 9.08772 30.9706 10.576 30.9706 12.4053C30.9706 14.2346 29.4824 15.7227 27.6532 15.7227C25.8239 15.7227 24.3357 14.2345 24.3357 12.4053C24.3357 10.576 25.8239 9.08772 27.6532 9.08772ZM8.78053 24.9051V12.3564C8.78053 11.6744 9.33541 11.1194 10.0175 11.1194H24.2762C24.2077 11.2984 24.1525 11.4839 24.1131 11.6751H10.0176C9.64198 11.6751 9.3364 11.9807 9.3364 12.3563V23.6884C9.3364 24.064 9.64198 24.3696 10.0176 24.3696H24.1553L25.9278 26.142H22.5174H16.9759H10.0176C9.33551 26.1421 8.78053 25.5872 8.78053 24.9051ZM17.1243 26.4388H22.369V28.3886H17.1243V26.4388ZM16.0231 28.6852H16.9759H22.5174H23.4702V29.321H16.0231V28.6852Z" fill="#3F3679"/>
<path d="M25.8205 13.1799L27.1285 14.2359C27.1559 14.2581 27.1888 14.2688 27.2216 14.2688C27.263 14.2688 27.304 14.2516 27.3333 14.2182L29.57 11.6652C29.6895 11.5288 29.7486 11.3542 29.7364 11.1735C29.7241 10.9927 29.642 10.8275 29.5052 10.7084C29.2229 10.4627 28.793 10.4917 28.5469 10.7731L27.0774 12.4506L26.6758 12.1262C26.3845 11.8912 25.956 11.9362 25.7207 12.2264C25.6063 12.3668 25.5537 12.5434 25.5726 12.7234C25.5913 12.9036 25.6793 13.0657 25.8205 13.1799ZM25.9508 12.4134C26.0262 12.3204 26.1368 12.2721 26.2484 12.2721C26.3331 12.2721 26.4183 12.2999 26.4892 12.3571L27.0017 12.771C27.0636 12.821 27.154 12.8133 27.2065 12.7533L28.7701 10.9686C28.9087 10.81 29.1511 10.7937 29.3103 10.9324C29.3873 10.9994 29.4335 11.0921 29.4403 11.1937C29.4472 11.2951 29.414 11.3932 29.3468 11.4698L27.204 13.9156L26.007 12.9492C25.9276 12.885 25.8781 12.7939 25.8675 12.6926C25.857 12.5915 25.8865 12.4924 25.9508 12.4134Z" fill="#3F3679"/>
<path d="M14.6045 13.2603H10.8466C10.7646 13.2603 10.6982 13.3266 10.6982 13.4086V14.2655C10.6982 14.3475 10.7646 14.4139 10.8466 14.4139H14.6045C14.6865 14.4139 14.7528 14.3475 14.7528 14.2655V13.4086C14.7528 13.3266 14.6865 13.2603 14.6045 13.2603ZM14.4562 14.1172H10.9949V13.557H14.4562V14.1172Z" fill="#3F3679"/>
<path d="M14.6045 15.3528H10.8466C10.7646 15.3528 10.6982 15.4192 10.6982 15.5012V16.3581C10.6982 16.44 10.7646 16.5064 10.8466 16.5064H14.6045C14.6865 16.5064 14.7528 16.44 14.7528 16.3581V15.5012C14.7528 15.4193 14.6865 15.3528 14.6045 15.3528ZM14.4562 16.2097H10.9949V15.6495H14.4562V16.2097Z" fill="#3F3679"/>
<path d="M14.6045 17.4455H10.8466C10.7646 17.4455 10.6982 17.5119 10.6982 17.5938V18.4508C10.6982 18.5328 10.7646 18.5992 10.8466 18.5992H14.6045C14.6865 18.5992 14.7528 18.5328 14.7528 18.4508V17.5938C14.7528 17.5119 14.6865 17.4455 14.6045 17.4455ZM14.4562 18.3025H10.9949V17.7422H14.4562V18.3025Z" fill="#3F3679"/>
<path d="M14.6045 19.5386H10.8466C10.7646 19.5386 10.6982 19.605 10.6982 19.6869V20.5438C10.6982 20.6258 10.7646 20.6922 10.8466 20.6922H14.6045C14.6865 20.6922 14.7528 20.6258 14.7528 20.5438V19.6869C14.7528 19.6051 14.6865 19.5386 14.6045 19.5386ZM14.4562 20.3955H10.9949V19.8353H14.4562V20.3955Z" fill="#3F3679"/>
<path d="M14.6045 21.6313H10.8466C10.7646 21.6313 10.6982 21.6976 10.6982 21.7796V22.6365C10.6982 22.7185 10.7646 22.7848 10.8466 22.7848H14.6045C14.6865 22.7848 14.7528 22.7185 14.7528 22.6365V21.7796C14.7528 21.6976 14.6865 21.6313 14.6045 21.6313ZM14.4562 22.4882H10.9949V21.9279H14.4562V22.4882Z" fill="#3F3679"/>
<path d="M17.7265 16.0019C17.1868 16.5415 16.8896 17.259 16.8896 18.0223C16.8896 18.7854 17.1868 19.5029 17.7265 20.0425C18.2834 20.5995 19.0151 20.8781 19.7467 20.8781C20.4784 20.8781 21.2101 20.5996 21.767 20.0425C22.3067 19.5029 22.6038 18.7854 22.6038 18.0223C22.6038 17.2591 22.3067 16.5415 21.767 16.0019C20.6531 14.888 18.8404 14.888 17.7265 16.0019ZM21.5573 19.8328C20.5588 20.8311 18.9345 20.8311 17.9362 19.8328C17.4526 19.3491 17.1863 18.7061 17.1863 18.0223C17.1863 17.3383 17.4526 16.6953 17.9362 16.2116C18.4354 15.7125 19.0911 15.4629 19.7467 15.4629C20.4024 15.4629 21.0581 15.7125 21.5573 16.2116C22.0408 16.6953 22.3072 17.3383 22.3072 18.0223C22.3073 18.7062 22.0408 19.3491 21.5573 19.8328Z" fill="#3F3679"/>
<path d="M20.4076 17.8257C20.6181 17.6412 20.7519 17.3713 20.7519 17.07C20.7519 16.5157 20.3009 16.0648 19.7467 16.0648C19.1924 16.0648 18.7414 16.5157 18.7414 17.07C18.7414 17.3713 18.8752 17.6412 19.0858 17.8257C18.6954 17.9516 18.4121 18.3181 18.4121 18.7497V19.8313C18.4121 19.9133 18.4785 19.9796 18.5604 19.9796H20.9328C21.0148 19.9796 21.0811 19.9133 21.0811 19.8313V18.7497C21.0812 18.3181 20.7979 17.9517 20.4076 17.8257ZM19.7467 16.3616C20.1374 16.3616 20.4552 16.6794 20.4552 17.0701C20.4552 17.4609 20.1374 17.7788 19.7467 17.7788C19.3559 17.7788 19.0381 17.461 19.0381 17.0701C19.0381 16.6794 19.3559 16.3616 19.7467 16.3616ZM20.7845 19.683H18.7089V18.7497C18.7089 18.3779 19.0114 18.0754 19.3832 18.0754H20.1103C20.4821 18.0754 20.7846 18.3779 20.7846 18.7497V19.683H20.7845Z" fill="#3F3679"/>
</g>
<defs>
<clipPath id="clip0_229_343">
<rect width="25.3165" height="25.3165" fill="white" transform="translate(7.08838 7.08859)"/>
</clipPath>
</defs>
</svg>
