<svg width="40" height="40" viewBox="0 0 40 40" fill="none" xmlns="http://www.w3.org/2000/svg">
<circle cx="20" cy="20" r="20" fill="#E21B1B" fill-opacity="0.5"/>
<path d="M26.2488 31.9992H11V8H28.999V29.2489L26.2488 31.9992Z" fill="white"/>
<path d="M16.5964 21.1467L14.8977 23.2109L14.184 22.5162L13.7129 23.0271L14.9527 24.233L17.1189 21.6004L16.5964 21.1467Z" fill="#E21B1B"/>
<path d="M16.5964 25.1626L14.8977 27.2267L14.184 26.5327L13.7129 27.043L14.9527 28.2489L17.1189 25.6168L16.5964 25.1626Z" fill="#E21B1B"/>
<path d="M26.2855 21.7643H18.4531V22.2937H26.2855V21.7643Z" fill="#CCCCCC"/>
<path d="M26.2855 23.0802H18.4531V23.6096H26.2855V23.0802Z" fill="#CCCCCC"/>
<path d="M26.2855 25.7804H18.4531V26.3098H26.2855V25.7804Z" fill="#CCCCCC"/>
<path d="M26.2855 27.0962H18.4531V27.6256H26.2855V27.0962Z" fill="#CCCCCC"/>
<path d="M26.249 31.9992V29.249H28.9992L26.249 31.9992Z" fill="#CCCCCC"/>
<path d="M17.5382 15.3131H16.1089V18.7543H17.5382V15.3131Z" fill="#E21B1B"/>
<path d="M15.4205 16.7957H13.9912V18.8604H15.4205V16.7957Z" fill="black"/>
<path d="M19.6554 13.4607H18.2261V18.8077H19.6554V13.4607Z" fill="black"/>
<path d="M21.7731 10.0195H20.3438V18.8604H21.7731V10.0195Z" fill="#E21B1B"/>
<path d="M23.8903 11.7664H22.4609V18.8071H23.8903V11.7664Z" fill="black"/>
<path d="M26.008 14.6255H24.5786V18.8604H26.008V14.6255Z" fill="#E21B1B"/>
</svg>
