<svg width="40" height="40" viewBox="0 0 40 40" fill="none" xmlns="http://www.w3.org/2000/svg">
<circle cx="20" cy="20" r="20" fill="#FF4F19" fill-opacity="0.5"/>
<g clip-path="url(#clip0_229_467)">
<path d="M29.9219 8.71875H9.07812C8.48363 8.71875 8 9.20238 8 9.79688V29.2031C8 29.7976 8.48363 30.2812 9.07812 30.2812H29.9219C30.5164 30.2812 31 29.7976 31 29.2031V9.79688C31 9.20238 30.5164 8.71875 29.9219 8.71875Z" fill="white"/>
<path d="M29.9219 8.71875H9.07812C8.48363 8.71875 8 9.20238 8 9.79688V29.2031C8 29.7976 8.48363 30.2812 9.07812 30.2812H29.9219C30.5164 30.2812 31 29.7976 31 29.2031V9.79688C31 9.20238 30.5164 8.71875 29.9219 8.71875ZM30.2812 29.2031C30.2812 29.4016 30.1203 29.5625 29.9219 29.5625H9.07812C8.87966 29.5625 8.71875 29.4016 8.71875 29.2031V11.9531C8.71875 11.7547 8.87966 11.5938 9.07812 11.5938H29.9219C30.1203 11.5938 30.2812 11.7547 30.2812 11.9531V29.2031Z" fill="#B9BBC1"/>
<path d="M9.4375 10.5156C9.34029 10.5156 9.25045 10.476 9.18234 10.4114C9.11743 10.3429 9.07812 10.2496 9.07812 10.1562C9.07812 10.0629 9.11743 9.96919 9.18234 9.90109C9.31536 9.76808 9.5596 9.76808 9.69261 9.90109C9.75721 9.96919 9.79688 10.0629 9.79688 10.1562C9.79688 10.2496 9.75721 10.3429 9.69266 10.4114C9.6242 10.476 9.53085 10.5156 9.4375 10.5156Z" fill="#FF4F19"/>
<path d="M10.5156 10.5156C10.4223 10.5156 10.3286 10.476 10.2605 10.4114C10.1956 10.3429 10.1562 10.2531 10.1562 10.1562C10.1562 10.0629 10.1956 9.96919 10.2605 9.90109C10.3935 9.76808 10.6377 9.76808 10.7707 9.90109C10.8353 9.96919 10.875 10.0629 10.875 10.1562C10.875 10.2496 10.8353 10.3429 10.7708 10.4114C10.7023 10.476 10.609 10.5156 10.5156 10.5156Z" fill="#FFD200"/>
<path d="M11.5938 10.5156C11.5004 10.5156 11.4067 10.476 11.3386 10.4114C11.2737 10.3429 11.2344 10.2496 11.2344 10.1562C11.2344 10.059 11.2737 9.96569 11.3386 9.90109C11.4751 9.76808 11.7123 9.76808 11.8489 9.90109C11.9135 9.96569 11.9531 10.059 11.9531 10.1562C11.9531 10.2496 11.9135 10.3429 11.8489 10.4114C11.7804 10.476 11.6871 10.5156 11.5938 10.5156Z" fill="#00E68C"/>
<path d="M15.5469 26.6875H10.5156C10.317 26.6875 10.1562 26.5268 10.1562 26.3281C10.1562 26.1295 10.317 25.9688 10.5156 25.9688H15.5469C15.7455 25.9688 15.9062 26.1295 15.9062 26.3281C15.9062 26.5268 15.7455 26.6875 15.5469 26.6875Z" fill="#5C546A"/>
<path d="M22.0156 26.6875H16.9844C16.7857 26.6875 16.625 26.5268 16.625 26.3281C16.625 26.1295 16.7857 25.9688 16.9844 25.9688H22.0156C22.2143 25.9688 22.375 26.1295 22.375 26.3281C22.375 26.5268 22.2143 26.6875 22.0156 26.6875Z" fill="#5C546A"/>
<path d="M28.4844 26.6875H23.4531C23.2545 26.6875 23.0938 26.5268 23.0938 26.3281C23.0938 26.1295 23.2545 25.9688 23.4531 25.9688H28.4844C28.683 25.9688 28.8438 26.1295 28.8438 26.3281C28.8438 26.5268 28.683 26.6875 28.4844 26.6875Z" fill="#5C546A"/>
<path d="M25.9688 28.125H23.4531C23.2545 28.125 23.0938 27.9643 23.0938 27.7656C23.0938 27.567 23.2545 27.4062 23.4531 27.4062H25.9688C26.1674 27.4062 26.3281 27.567 26.3281 27.7656C26.3281 27.9643 26.1674 28.125 25.9688 28.125Z" fill="#B9BBC1"/>
<path d="M19.5 28.125H16.9844C16.7857 28.125 16.625 27.9643 16.625 27.7656C16.625 27.567 16.7857 27.4062 16.9844 27.4062H19.5C19.6986 27.4062 19.8594 27.567 19.8594 27.7656C19.8594 27.9643 19.6986 28.125 19.5 28.125Z" fill="#B9BBC1"/>
<path d="M13.0312 28.125H10.5156C10.317 28.125 10.1562 27.9643 10.1562 27.7656C10.1562 27.567 10.317 27.4062 10.5156 27.4062H13.0312C13.2299 27.4062 13.3906 27.567 13.3906 27.7656C13.3906 27.9643 13.2299 28.125 13.0312 28.125Z" fill="#B9BBC1"/>
<path d="M23.0938 13.75H19.8594C19.6607 13.75 19.5 13.5893 19.5 13.3906C19.5 13.192 19.6607 13.0312 19.8594 13.0312H23.0938C23.2924 13.0312 23.4531 13.192 23.4531 13.3906C23.4531 13.5893 23.2924 13.75 23.0938 13.75Z" fill="#FF4F19"/>
<path d="M28.4844 15.1875H19.8594C19.6607 15.1875 19.5 15.0268 19.5 14.8281C19.5 14.6295 19.6607 14.4688 19.8594 14.4688H28.4844C28.683 14.4688 28.8438 14.6295 28.8438 14.8281C28.8438 15.0268 28.683 15.1875 28.4844 15.1875Z" fill="#E9001E"/>
<path d="M28.4844 17.3438H21.6562C21.4576 17.3438 21.2969 17.183 21.2969 16.9844C21.2969 16.7857 21.4576 16.625 21.6562 16.625H28.4844C28.683 16.625 28.8438 16.7857 28.8438 16.9844C28.8438 17.183 28.683 17.3438 28.4844 17.3438Z" fill="#B9BBC1"/>
<path d="M28.4844 18.7812H21.6562C21.4576 18.7812 21.2969 18.6205 21.2969 18.4219C21.2969 18.2232 21.4576 18.0625 21.6562 18.0625H28.4844C28.683 18.0625 28.8438 18.2232 28.8438 18.4219C28.8438 18.6205 28.683 18.7812 28.4844 18.7812Z" fill="#B9BBC1"/>
<path d="M28.4844 20.2188H21.6562C21.4576 20.2188 21.2969 20.058 21.2969 19.8594C21.2969 19.6607 21.4576 19.5 21.6562 19.5H28.4844C28.683 19.5 28.8438 19.6607 28.8438 19.8594C28.8438 20.058 28.683 20.2188 28.4844 20.2188Z" fill="#B9BBC1"/>
<path d="M20.2188 17.3438H19.8594C19.6607 17.3438 19.5 17.183 19.5 16.9844C19.5 16.7857 19.6607 16.625 19.8594 16.625H20.2188C20.4174 16.625 20.5781 16.7857 20.5781 16.9844C20.5781 17.183 20.4174 17.3438 20.2188 17.3438Z" fill="#FFD200"/>
<path d="M20.2188 18.7812H19.8594C19.6607 18.7812 19.5 18.6205 19.5 18.4219C19.5 18.2232 19.6607 18.0625 19.8594 18.0625H20.2188C20.4174 18.0625 20.5781 18.2232 20.5781 18.4219C20.5781 18.6205 20.4174 18.7812 20.2188 18.7812Z" fill="#FFD200"/>
<path d="M20.2188 20.2188H19.8594C19.6607 20.2188 19.5 20.058 19.5 19.8594C19.5 19.6607 19.6607 19.5 19.8594 19.5H20.2188C20.4174 19.5 20.5781 19.6607 20.5781 19.8594C20.5781 20.058 20.4174 20.2188 20.2188 20.2188Z" fill="#FFD200"/>
<path d="M16.2656 19.8594H13.0312C12.8326 19.8594 12.6719 19.6986 12.6719 19.5C12.6719 19.3014 12.8326 19.1406 13.0312 19.1406H16.2656C16.4643 19.1406 16.625 19.3014 16.625 19.5C16.625 19.6986 16.4643 19.8594 16.2656 19.8594Z" fill="#8B8996"/>
<path d="M12.6716 19.8594C12.6088 19.8594 12.5449 19.8429 12.487 19.8081C12.3168 19.706 12.2617 19.4852 12.3638 19.315L13.4419 17.5181C13.544 17.3483 13.7645 17.2925 13.935 17.395C14.1053 17.4971 14.1604 17.7179 14.0582 17.8881L12.9801 19.6849C12.9127 19.7973 12.7937 19.8594 12.6716 19.8594Z" fill="#8B8996"/>
<path d="M16.625 20.2188C17.022 20.2188 17.3438 19.897 17.3438 19.5C17.3438 19.103 17.022 18.7812 16.625 18.7812C16.228 18.7812 15.9062 19.103 15.9062 19.5C15.9062 19.897 16.228 20.2188 16.625 20.2188Z" fill="#5C546A"/>
<path d="M12.6719 20.2188C13.0688 20.2188 13.3906 19.897 13.3906 19.5C13.3906 19.103 13.0688 18.7812 12.6719 18.7812C12.2749 18.7812 11.9531 19.103 11.9531 19.5C11.9531 19.897 12.2749 20.2188 12.6719 20.2188Z" fill="#5C546A"/>
<path d="M16.2656 18.0625H14.0803C13.5215 18.0625 13.0091 17.7347 12.7751 17.2272L11.004 13.75H10.5156C10.317 13.75 10.1562 13.5893 10.1562 13.3906C10.1562 13.192 10.317 13.0312 10.5156 13.0312H11.0045C11.2842 13.0312 11.5563 13.2318 11.5563 13.2318L11.8103 13.75H17.3438C17.5424 13.75 17.7031 13.9107 17.7031 14.1094V16.625C17.7031 17.4178 17.0584 18.0625 16.2656 18.0625Z" fill="#B9BBC1"/>
<path d="M11.2344 13.75H10.5156C10.3172 13.75 10.1562 13.5891 10.1562 13.3906C10.1562 13.1922 10.3172 13.0312 10.5156 13.0312H11.2344C11.4328 13.0312 11.5938 13.1922 11.5938 13.3906C11.5938 13.5891 11.4328 13.75 11.2344 13.75Z" fill="#8B8996"/>
<path d="M15.5469 21.6562H10.5156C10.3172 21.6562 10.1562 21.8172 10.1562 22.0156V24.8906C10.1562 25.0891 10.3172 25.25 10.5156 25.25H15.5469C15.7453 25.25 15.9062 25.0891 15.9062 24.8906V22.0156C15.9062 21.8172 15.7453 21.6562 15.5469 21.6562Z" fill="#00E68C"/>
<path d="M22.0156 21.6562H16.9844C16.7859 21.6562 16.625 21.8172 16.625 22.0156V24.8906C16.625 25.0891 16.7859 25.25 16.9844 25.25H22.0156C22.2141 25.25 22.375 25.0891 22.375 24.8906V22.0156C22.375 21.8172 22.2141 21.6562 22.0156 21.6562Z" fill="#FF4F19"/>
<path d="M28.4844 21.6562H23.4531C23.2547 21.6562 23.0938 21.8172 23.0938 22.0156V24.8906C23.0938 25.0891 23.2547 25.25 23.4531 25.25H28.4844C28.6828 25.25 28.8438 25.0891 28.8438 24.8906V22.0156C28.8438 21.8172 28.6828 21.6562 28.4844 21.6562Z" fill="#00ABFF"/>
</g>
<defs>
<clipPath id="clip0_229_467">
<rect width="23" height="23" fill="white" transform="translate(8 8)"/>
</clipPath>
</defs>
</svg>
