<svg width="77" height="84" viewBox="0 0 77 84" fill="none" xmlns="http://www.w3.org/2000/svg">
<circle cx="35" cy="38" r="20" fill="#FFC431" fill-opacity="0.5"/>
<g filter="url(#filter0_d_229_399)">
<path d="M41.4715 26.2753H28.0222C27.3668 26.2753 26.8354 26.8066 26.8354 27.462V48.0316C26.8354 48.687 27.3668 49.2184 28.0222 49.2184H41.4715C42.1269 49.2184 42.6582 48.687 42.6582 48.0316V27.462C42.6582 26.8066 42.1269 26.2753 41.4715 26.2753Z" fill="#548AFF"/>
<path d="M37.9111 26.2753L37.3387 27.4203C37.273 27.5517 37.172 27.6622 37.047 27.7394C36.922 27.8167 36.778 27.8576 36.6311 27.8576H32.8621C32.7152 27.8576 32.5712 27.8167 32.4462 27.7394C32.3212 27.6622 32.2202 27.5517 32.1545 27.4203L31.582 26.2753H37.9111Z" fill="#4976F2"/>
<path d="M28.022 27.462H29.2087V28.2532H28.022V27.462Z" fill="#4976F2"/>
<path d="M40.2847 27.462H41.4714V28.2532H40.2847V27.462Z" fill="#4976F2"/>
<path d="M31.1865 30.6266H38.3068V36.9557H31.1865V30.6266Z" fill="#FFC431"/>
<path d="M33.5601 30.6266V33L34.7468 32.2088L35.9335 33V30.6266H33.5601Z" fill="#FFA100"/>
<path d="M35.1421 34.9778H35.9332V35.769H35.1421V34.9778Z" fill="#FFB401"/>
<path d="M36.3291 34.9778H37.1202V35.769H36.3291V34.9778Z" fill="#FFB401"/>
<path d="M30.791 40.1203H32.3733V40.9114H30.791V40.1203Z" fill="#639AFF"/>
<path d="M33.9556 40.1203H35.5378V40.9114H33.9556V40.1203Z" fill="#639AFF"/>
<path d="M37.1201 40.1203H39.098V40.9114H37.1201V40.1203Z" fill="#639AFF"/>
<path d="M39.0981 38.1424H39.8893V38.9335H39.0981V38.1424Z" fill="#91C0FF"/>
<path d="M37.5322 39.1175L38.0916 38.5581L38.651 39.1175L38.0916 39.6769L37.5322 39.1175Z" fill="#91C0FF"/>
<path d="M37.5322 41.9143L38.0916 41.3549L38.651 41.9143L38.0916 42.4737L37.5322 41.9143Z" fill="#91C0FF"/>
<path d="M40.3291 41.9145L40.8885 41.3551L41.4478 41.9145L40.8885 42.4739L40.3291 41.9145Z" fill="#91C0FF"/>
<path d="M39.0981 42.0981H39.8893V42.8893H39.0981V42.0981Z" fill="#91C0FF"/>
<path d="M41.0757 40.1203H41.8668V40.9114H41.0757V40.1203Z" fill="#91C0FF"/>
<path d="M40.3291 39.1178L40.8885 38.5584L41.4478 39.1178L40.8885 39.6772L40.3291 39.1178Z" fill="#91C0FF"/>
<path d="M29.2085 43.2848H29.9996V44.0759H29.2085V43.2848Z" fill="#7DAFFF"/>
<path d="M33.9556 43.2848H35.9334V44.0759H33.9556V43.2848Z" fill="#7DAFFF"/>
<path d="M30.791 43.2848H33.1644V44.0759H30.791V43.2848Z" fill="#7DAFFF"/>
<path d="M29.2085 44.8671H29.9996V45.6582H29.2085V44.8671Z" fill="#7DAFFF"/>
<path d="M32.7686 44.8671H33.9553V45.6582H32.7686V44.8671Z" fill="#7DAFFF"/>
<path d="M30.791 44.8671H31.9777V45.6582H30.791V44.8671Z" fill="#7DAFFF"/>
<path d="M29.2085 46.4494H29.9996V47.2405H29.2085V46.4494Z" fill="#7DAFFF"/>
<path d="M34.3511 46.4494H35.9334V47.2405H34.3511V46.4494Z" fill="#7DAFFF"/>
<path d="M30.791 46.4494H33.56V47.2405H30.791V46.4494Z" fill="#7DAFFF"/>
<path d="M29.9996 41.307C30.4366 41.307 30.7908 40.9528 30.7908 40.5158C30.7908 40.0789 30.4366 39.7247 29.9996 39.7247C29.5627 39.7247 29.2085 40.0789 29.2085 40.5158C29.2085 40.9528 29.5627 41.307 29.9996 41.307Z" fill="#548AFF"/>
<path d="M29.9997 41.7025C29.765 41.7025 29.5356 41.6329 29.3404 41.5025C29.1452 41.3721 28.9931 41.1868 28.9033 40.97C28.8135 40.7531 28.79 40.5145 28.8358 40.2843C28.8816 40.0541 28.9946 39.8427 29.1606 39.6767C29.3265 39.5107 29.538 39.3977 29.7682 39.3519C29.9984 39.3061 30.237 39.3296 30.4538 39.4195C30.6707 39.5093 30.856 39.6614 30.9864 39.8565C31.1168 40.0517 31.1864 40.2811 31.1864 40.5158C31.186 40.8305 31.0609 41.1321 30.8384 41.3546C30.616 41.577 30.3143 41.7022 29.9997 41.7025ZM29.9997 40.1203C29.9215 40.1203 29.845 40.1435 29.7799 40.1869C29.7149 40.2304 29.6642 40.2922 29.6342 40.3644C29.6043 40.4367 29.5965 40.5163 29.6117 40.593C29.627 40.6697 29.6647 40.7402 29.72 40.7955C29.7753 40.8509 29.8458 40.8885 29.9225 40.9038C29.9993 40.9191 30.0788 40.9112 30.1511 40.8813C30.2234 40.8513 30.2851 40.8006 30.3286 40.7356C30.3721 40.6705 30.3953 40.5941 30.3953 40.5158C30.3951 40.411 30.3534 40.3104 30.2793 40.2362C30.2051 40.1621 30.1046 40.1204 29.9997 40.1203Z" fill="#7DAFFF"/>
<path d="M33.1642 41.307C33.6011 41.307 33.9553 40.9528 33.9553 40.5158C33.9553 40.0789 33.6011 39.7247 33.1642 39.7247C32.7273 39.7247 32.373 40.0789 32.373 40.5158C32.373 40.9528 32.7273 41.307 33.1642 41.307Z" fill="#548AFF"/>
<path d="M33.1642 41.7025C32.9295 41.7025 32.7001 41.6329 32.5049 41.5025C32.3098 41.3721 32.1577 41.1868 32.0679 40.97C31.9781 40.7531 31.9546 40.5145 32.0003 40.2843C32.0461 40.0541 32.1592 39.8427 32.3251 39.6767C32.4911 39.5107 32.7025 39.3977 32.9327 39.3519C33.1629 39.3061 33.4015 39.3296 33.6184 39.4195C33.8352 39.5093 34.0206 39.6614 34.151 39.8565C34.2814 40.0517 34.351 40.2811 34.351 40.5158C34.3506 40.8305 34.2255 41.1321 34.003 41.3546C33.7805 41.577 33.4789 41.7022 33.1642 41.7025ZM33.1642 40.1203C33.086 40.1203 33.0095 40.1435 32.9445 40.1869C32.8794 40.2304 32.8287 40.2922 32.7988 40.3644C32.7689 40.4367 32.761 40.5163 32.7763 40.593C32.7915 40.6697 32.8292 40.7402 32.8845 40.7955C32.9399 40.8509 33.0103 40.8885 33.0871 40.9038C33.1638 40.9191 33.2433 40.9112 33.3156 40.8813C33.3879 40.8513 33.4497 40.8006 33.4932 40.7356C33.5366 40.6705 33.5598 40.5941 33.5598 40.5158C33.5597 40.411 33.518 40.3104 33.4438 40.2362C33.3697 40.1621 33.2691 40.1204 33.1642 40.1203Z" fill="#7DAFFF"/>
<path d="M36.3287 41.307C36.7657 41.307 37.1199 40.9528 37.1199 40.5158C37.1199 40.0789 36.7657 39.7247 36.3287 39.7247C35.8918 39.7247 35.5376 40.0789 35.5376 40.5158C35.5376 40.9528 35.8918 41.307 36.3287 41.307Z" fill="#548AFF"/>
<path d="M36.3288 41.7025C36.0941 41.7025 35.8647 41.6329 35.6695 41.5025C35.4743 41.3721 35.3222 41.1868 35.2324 40.97C35.1426 40.7531 35.1191 40.5145 35.1649 40.2843C35.2107 40.0541 35.3237 39.8427 35.4897 39.6767C35.6556 39.5107 35.8671 39.3977 36.0973 39.3519C36.3275 39.3061 36.5661 39.3296 36.7829 39.4195C36.9998 39.5093 37.1851 39.6614 37.3155 39.8565C37.4459 40.0517 37.5155 40.2811 37.5155 40.5158C37.5151 40.8305 37.39 41.1321 37.1675 41.3546C36.9451 41.577 36.6434 41.7022 36.3288 41.7025ZM36.3288 40.1203C36.2506 40.1203 36.1741 40.1435 36.109 40.1869C36.044 40.2304 35.9933 40.2922 35.9633 40.3644C35.9334 40.4367 35.9256 40.5163 35.9408 40.593C35.9561 40.6697 35.9938 40.7402 36.0491 40.7955C36.1044 40.8509 36.1749 40.8885 36.2516 40.9038C36.3284 40.9191 36.4079 40.9112 36.4802 40.8813C36.5525 40.8513 36.6142 40.8006 36.6577 40.7356C36.7012 40.6705 36.7244 40.5941 36.7244 40.5158C36.7242 40.411 36.6825 40.3104 36.6084 40.2362C36.5342 40.1621 36.4337 40.1204 36.3288 40.1203Z" fill="#7DAFFF"/>
<path d="M39.4933 41.307C39.9302 41.307 40.2844 40.9528 40.2844 40.5158C40.2844 40.0789 39.9302 39.7247 39.4933 39.7247C39.0564 39.7247 38.7021 40.0789 38.7021 40.5158C38.7021 40.9528 39.0564 41.307 39.4933 41.307Z" fill="#548AFF"/>
<path d="M39.4933 41.7025C39.2586 41.7025 39.0292 41.6329 38.8341 41.5025C38.6389 41.3721 38.4868 41.1868 38.397 40.97C38.3072 40.7531 38.2837 40.5145 38.3294 40.2843C38.3752 40.0541 38.4883 39.8427 38.6542 39.6767C38.8202 39.5107 39.0316 39.3977 39.2618 39.3519C39.492 39.3061 39.7306 39.3296 39.9475 39.4195C40.1643 39.5093 40.3497 39.6614 40.4801 39.8565C40.6105 40.0517 40.6801 40.2811 40.6801 40.5158C40.6797 40.8305 40.5546 41.1321 40.3321 41.3546C40.1096 41.577 39.808 41.7022 39.4933 41.7025ZM39.4933 40.1203C39.4151 40.1203 39.3386 40.1435 39.2736 40.1869C39.2085 40.2304 39.1578 40.2922 39.1279 40.3644C39.098 40.4367 39.0901 40.5163 39.1054 40.593C39.1206 40.6697 39.1583 40.7402 39.2136 40.7955C39.269 40.8509 39.3394 40.8885 39.4162 40.9038C39.4929 40.9191 39.5724 40.9112 39.6447 40.8813C39.717 40.8513 39.7788 40.8006 39.8223 40.7356C39.8657 40.6705 39.8889 40.5941 39.8889 40.5158C39.8888 40.411 39.8471 40.3104 39.7729 40.2362C39.6988 40.1621 39.5982 40.1204 39.4933 40.1203Z" fill="#91C0FF"/>
</g>
<defs>
<filter id="filter0_d_229_399" x="-3.91162" y="-0.911392" width="85.3164" height="85.3165" filterUnits="userSpaceOnUse" color-interpolation-filters="sRGB">
<feFlood flood-opacity="0" result="BackgroundImageFix"/>
<feColorMatrix in="SourceAlpha" type="matrix" values="0 0 0 0 0 0 0 0 0 0 0 0 0 0 0 0 0 0 127 0" result="hardAlpha"/>
<feOffset dx="4" dy="4"/>
<feGaussianBlur stdDeviation="15"/>
<feComposite in2="hardAlpha" operator="out"/>
<feColorMatrix type="matrix" values="0 0 0 0 0.768627 0 0 0 0 0.768627 0 0 0 0 0.768627 0 0 0 1 0"/>
<feBlend mode="normal" in2="BackgroundImageFix" result="effect1_dropShadow_229_399"/>
<feBlend mode="normal" in="SourceGraphic" in2="effect1_dropShadow_229_399" result="shape"/>
</filter>
</defs>
</svg>
