<svg width="157" height="157" viewBox="0 0 157 157" fill="none" xmlns="http://www.w3.org/2000/svg">
<path d="M62.0226 89.2805C61.6098 89.5467 61.4891 90.0983 61.7723 90.4997C63.7515 93.3049 66.4025 95.574 69.4878 97.095C72.839 98.747 76.576 99.454 80.2978 99.1399C84.0197 98.8259 87.586 97.5027 90.6141 95.3124C93.6422 93.1221 96.0178 90.1472 97.4861 86.707C98.9544 83.2668 99.46 79.4911 98.9486 75.7849C98.4372 72.0787 96.9281 68.5819 94.5833 65.6697C92.2384 62.7575 89.1463 60.5397 85.6386 59.2543C82.4102 58.0712 78.9419 57.7191 75.5508 58.2233C75.064 58.2957 74.7481 58.765 74.8412 59.2483C74.9344 59.7319 75.402 60.0461 75.8895 59.9757C78.9625 59.5319 82.1025 59.8571 85.027 60.9288C88.2312 62.103 91.0558 64.1289 93.1977 66.7891C95.3397 69.4494 96.7182 72.6436 97.1853 76.0291C97.6525 79.4145 97.1906 82.8636 95.8494 86.0061C94.5081 89.1486 92.3381 91.866 89.572 93.8668C86.8059 95.8676 83.5482 97.0763 80.1484 97.3631C76.7486 97.65 73.335 97.0042 70.2738 95.4951C67.4794 94.1176 65.0749 92.0681 63.272 89.5356C62.9864 89.1345 62.4364 89.0136 62.0226 89.2805Z" fill="url(#paint0_linear_229_225)"/>
<ellipse cx="78.5712" cy="78.6063" rx="15.579" ry="15.6056" fill="#D7F3FE"/>
<g filter="url(#filter0_d_229_225)">
<ellipse cx="78.565" cy="78.4628" rx="8.17682" ry="8.1908" fill="white"/>
</g>
<path d="M64.1895 75.4848C63.7233 75.3836 63.4249 74.9228 63.5514 74.4628C64.4807 71.0821 66.5231 68.1042 69.3596 66.0209C72.4286 63.767 76.215 62.7162 80.0043 63.0669C83.7937 63.4176 87.3238 65.1454 89.9286 67.9244C92.5334 70.7034 94.0327 74.3414 94.1436 78.1517C94.2544 81.9621 92.9692 85.6813 90.5304 88.6075C88.0916 91.5338 84.6679 93.4647 80.9054 94.0358C77.1429 94.6069 73.3018 93.7788 70.107 91.7078C67.1541 89.7935 64.9421 86.9398 63.8177 83.619C63.6647 83.1671 63.9358 82.6898 64.3953 82.5616C64.8554 82.4333 65.3298 82.7036 65.4861 83.1549C66.4952 86.0679 68.4481 88.57 71.046 90.2542C73.8864 92.0955 77.3013 92.8317 80.6464 92.3239C83.9915 91.8162 87.0353 90.0995 89.2035 87.4979C91.3718 84.8963 92.5144 81.5897 92.4159 78.2021C92.3173 74.8145 90.9844 71.5802 88.6685 69.1096C86.3527 66.6389 83.2143 65.1027 79.8453 64.7909C76.4764 64.4792 73.1101 65.4134 70.3816 67.4172C67.8859 69.2501 66.0818 71.862 65.2438 74.829C65.114 75.2886 64.6562 75.5861 64.1895 75.4848Z" fill="url(#paint1_angular_229_225)"/>
<ellipse cx="78.6523" cy="78.5504" rx="1.77091" ry="1.77393" fill="#049DD9"/>
<defs>
<filter id="filter0_d_229_225" x="0.388184" y="0.272034" width="156.354" height="156.382" filterUnits="userSpaceOnUse" color-interpolation-filters="sRGB">
<feFlood flood-opacity="0" result="BackgroundImageFix"/>
<feColorMatrix in="SourceAlpha" type="matrix" values="0 0 0 0 0 0 0 0 0 0 0 0 0 0 0 0 0 0 127 0" result="hardAlpha"/>
<feOffset/>
<feGaussianBlur stdDeviation="35"/>
<feColorMatrix type="matrix" values="0 0 0 0 0.317647 0 0 0 0 0.431373 0 0 0 0 1 0 0 0 0.7 0"/>
<feBlend mode="normal" in2="BackgroundImageFix" result="effect1_dropShadow_229_225"/>
<feBlend mode="normal" in="SourceGraphic" in2="effect1_dropShadow_229_225" result="shape"/>
</filter>
<linearGradient id="paint0_linear_229_225" x1="68.5868" y1="98.2642" x2="77.6969" y2="58.9552" gradientUnits="userSpaceOnUse">
<stop stop-color="#049DD9"/>
<stop offset="0.48461" stop-color="#0077B6" stop-opacity="0"/>
<stop offset="0.660252" stop-color="#D7F3FE"/>
<stop offset="1" stop-color="#D7F3FE"/>
</linearGradient>
<radialGradient id="paint1_angular_229_225" cx="0" cy="0" r="1" gradientUnits="userSpaceOnUse" gradientTransform="translate(78.5712 78.6063) rotate(103.118) scale(15.3598 15.3363)">
<stop offset="0.173135" stop-color="#F6F8FF" stop-opacity="0"/>
<stop offset="0.254245" stop-color="#049DD9"/>
<stop offset="0.696184" stop-color="#D7F3FE"/>
</radialGradient>
</defs>
</svg>
