<svg width="421" height="356" viewBox="0 0 421 356" fill="none" xmlns="http://www.w3.org/2000/svg">
<g filter="url(#filter0_bdddddd_259_136)">
<rect x="89" y="2" width="243" height="155" rx="10" fill="white" fill-opacity="0.75"/>
</g>
<path d="M106.284 38H108.78V26.672H106.284V38ZM110.746 38H113.146V34.128C113.146 33.12 113.338 32.144 114.586 32.144C115.818 32.144 115.834 33.296 115.834 34.192V38H118.234V33.712C118.234 31.632 117.786 30.032 115.354 30.032C114.186 30.032 113.402 30.672 113.082 31.28H113.05V30.224H110.746V38ZM125.806 31.056C125.086 30.288 123.95 30.032 122.926 30.032C121.294 30.032 119.662 30.832 119.662 32.656C119.662 35.616 123.71 34.56 123.71 35.808C123.71 36.224 123.166 36.368 122.622 36.368C121.902 36.368 121.374 36.064 120.926 35.52L119.47 37.136C120.238 37.92 121.438 38.192 122.526 38.192C124.19 38.192 126.11 37.616 126.11 35.632C126.11 32.672 122.062 33.648 122.062 32.496C122.062 32.032 122.542 31.856 122.942 31.856C123.518 31.856 123.982 32.08 124.334 32.512L125.806 31.056ZM127.372 38H129.772V30.224H127.372V38ZM127.18 27.776C127.18 28.544 127.804 29.168 128.572 29.168C129.34 29.168 129.964 28.544 129.964 27.776C129.964 27.008 129.34 26.384 128.572 26.384C127.804 26.384 127.18 27.008 127.18 27.776ZM139.656 30.224H137.448V31.248H137.416C137.048 30.688 136.12 30.032 134.76 30.032C132.552 30.032 131.208 32.016 131.208 34.08C131.208 36.432 132.728 38.096 135.032 38.096C135.752 38.096 136.68 37.824 137.224 37.072H137.256V37.824C137.256 38.928 136.568 39.728 135.112 39.728C134.136 39.728 133.32 39.344 132.584 38.72L131.256 40.704C132.376 41.6 133.784 41.84 135.16 41.84C138.168 41.84 139.656 40.272 139.656 37.344V30.224ZM133.608 34.064C133.608 33.056 134.44 32.144 135.528 32.144C136.616 32.144 137.448 33.056 137.448 34.064C137.448 35.072 136.616 35.984 135.528 35.984C134.44 35.984 133.608 35.072 133.608 34.064ZM141.575 25.904V38H143.975V34.128C143.975 33.12 144.167 32.144 145.415 32.144C146.647 32.144 146.663 33.296 146.663 34.192V38H149.063V33.712C149.063 31.632 148.615 30.032 146.183 30.032C145.015 30.032 144.231 30.672 144.007 31.28H143.975V25.904H141.575ZM156.058 30.224H153.946V27.92H151.546V30.224H150.01V32.144H151.546V35.84C151.546 37.536 152.778 38.192 154.378 38.192C154.938 38.192 155.53 38.144 156.058 37.952V35.952C155.85 36.144 155.338 36.176 155.082 36.176C154.042 36.176 153.946 35.568 153.946 34.736V32.144H156.058V30.224ZM163.15 31.056C162.43 30.288 161.294 30.032 160.27 30.032C158.638 30.032 157.006 30.832 157.006 32.656C157.006 35.616 161.054 34.56 161.054 35.808C161.054 36.224 160.51 36.368 159.966 36.368C159.246 36.368 158.718 36.064 158.27 35.52L156.814 37.136C157.582 37.92 158.782 38.192 159.87 38.192C161.534 38.192 163.454 37.616 163.454 35.632C163.454 32.672 159.406 33.648 159.406 32.496C159.406 32.032 159.886 31.856 160.286 31.856C160.862 31.856 161.326 32.08 161.678 32.512L163.15 31.056Z" fill="#0F2441"/>
<path d="M107.487 69H108.927V61.92H107.527L105.217 63.87L106.067 64.85L107.487 63.6V69ZM110.855 65.46C110.855 67.14 111.385 69.12 113.485 69.12C115.585 69.12 116.115 67.14 116.115 65.46C116.115 63.78 115.585 61.8 113.485 61.8C111.385 61.8 110.855 63.78 110.855 65.46ZM112.355 65.46C112.355 64.72 112.405 63.18 113.485 63.18C114.565 63.18 114.615 64.72 114.615 65.46C114.615 66.2 114.565 67.74 113.485 67.74C112.405 67.74 112.355 66.2 112.355 65.46ZM116.973 69H118.473V66.54H118.493L120.133 69H122.023L120.043 66.33L121.973 64.14H120.133L118.473 66.06V61.44H116.973V69Z" fill="#718EBF"/>
<path d="M113.855 87H115.295V85.58H116.205V84.32H115.295V79.92H113.655L110.765 84.32V85.58H113.855V87ZM113.855 84.32H112.265L113.835 81.88H113.855V84.32ZM116.973 87H118.473V84.54H118.493L120.133 87H122.023L120.043 84.33L121.973 82.14H120.133L118.473 84.06V79.44H116.973V87Z" fill="#718EBF"/>
<path d="M111.015 107H115.955V105.68H112.815L114.965 103.83C115.505 103.36 115.895 102.84 115.895 101.93C115.895 100.51 114.895 99.8 113.605 99.8C112.215 99.8 111.195 100.51 111.105 101.97L112.605 102.08C112.645 101.57 112.975 101.18 113.525 101.18C113.985 101.18 114.395 101.47 114.395 101.95C114.395 102.38 114.045 102.68 113.765 102.94L111.015 105.41V107ZM116.973 107H118.473V104.54H118.493L120.133 107H122.023L120.043 104.33L121.973 102.14H120.133L118.473 104.06V99.44H116.973V107Z" fill="#718EBF"/>
<path d="M114.412 123.46C114.412 125.14 114.942 127.12 117.042 127.12C119.142 127.12 119.672 125.14 119.672 123.46C119.672 121.78 119.142 119.8 117.042 119.8C114.942 119.8 114.412 121.78 114.412 123.46ZM115.912 123.46C115.912 122.72 115.962 121.18 117.042 121.18C118.122 121.18 118.172 122.72 118.172 123.46C118.172 124.2 118.122 125.74 117.042 125.74C115.962 125.74 115.912 124.2 115.912 123.46Z" fill="#718EBF"/>
<path d="M136.419 132.48C135.819 131.95 135.049 131.74 134.249 131.74C132.859 131.74 131.549 132.53 131.549 134.04C131.549 136.4 134.869 135.7 134.869 137C134.869 137.5 134.299 137.74 133.789 137.74C133.269 137.74 132.749 137.49 132.429 137.07L131.319 138.29C131.989 138.91 132.789 139.18 133.699 139.18C135.159 139.18 136.429 138.43 136.429 136.85C136.429 134.37 133.169 135.2 133.169 133.91C133.169 133.38 133.779 133.18 134.219 133.18C134.599 133.18 135.099 133.33 135.349 133.65L136.419 132.48Z" fill="#718EBF"/>
<path d="M124 118C124 116.343 125.343 115 127 115H141C142.657 115 144 116.343 144 118V127H124V118Z" fill="white"/>
<path d="M153.998 139H155.558V133.57H155.578L157.368 139H158.558L160.418 133.57H160.438V139H161.998V131.92H159.648L158.008 136.54H157.988L156.358 131.92H153.998V139Z" fill="#718EBF"/>
<path d="M148 112C148 110.343 149.343 109 151 109H165C166.657 109 168 110.343 168 112V127H148V112Z" fill="white"/>
<path d="M181.219 139H182.779V133.3H184.799V131.92H179.199V133.3H181.219V139Z" fill="#718EBF"/>
<path d="M172 88C172 86.3431 173.343 85 175 85H189C190.657 85 192 86.3431 192 88V127H172V88Z" fill="white"/>
<path d="M203.08 139H204.42L205.98 134.1H206L207.56 139H208.95L211.02 131.92H209.44L208.25 136.58H208.23L206.76 131.92H205.31L203.83 136.46H203.81L202.68 131.92H200.98L203.08 139Z" fill="#718EBF"/>
<path d="M196 99C196 97.3431 197.343 96 199 96H213C214.657 96 216 97.3431 216 99V127H196V99Z" fill="#049DD9"/>
<path d="M229.219 139H230.779V133.3H232.799V131.92H227.199V133.3H229.219V139Z" fill="#718EBF"/>
<path d="M220 71C220 69.3431 221.343 68 223 68H237C238.657 68 240 69.3431 240 71V127H220V71Z" fill="#0F2441"/>
<path d="M252.816 139H254.376V136.24H257.326V134.8H254.376V133.36H257.566V131.92H252.816V139Z" fill="#718EBF"/>
<path d="M244 118C244 116.343 245.343 115 247 115H261C262.657 115 264 116.343 264 118V127H244V118Z" fill="white"/>
<path d="M280.419 132.48C279.819 131.95 279.049 131.74 278.249 131.74C276.859 131.74 275.549 132.53 275.549 134.04C275.549 136.4 278.869 135.7 278.869 137C278.869 137.5 278.299 137.74 277.789 137.74C277.269 137.74 276.749 137.49 276.429 137.07L275.319 138.29C275.989 138.91 276.789 139.18 277.699 139.18C279.159 139.18 280.429 138.43 280.429 136.85C280.429 134.37 277.169 135.2 277.169 133.91C277.169 133.38 277.779 133.18 278.219 133.18C278.599 133.18 279.099 133.33 279.349 133.65L280.419 132.48Z" fill="#718EBF"/>
<path d="M268 99C268 97.3431 269.343 96 271 96H285C286.657 96 288 97.3431 288 99V127H268V99Z" fill="black"/>
<path d="M305.419 132.48C304.819 131.95 304.049 131.74 303.249 131.74C301.859 131.74 300.549 132.53 300.549 134.04C300.549 136.4 303.869 135.7 303.869 137C303.869 137.5 303.299 137.74 302.789 137.74C302.269 137.74 301.749 137.49 301.429 137.07L300.319 138.29C300.989 138.91 301.789 139.18 302.699 139.18C304.159 139.18 305.429 138.43 305.429 136.85C305.429 134.37 302.169 135.2 302.169 133.91C302.169 133.38 302.779 133.18 303.219 133.18C303.599 133.18 304.099 133.33 304.349 133.65L305.419 132.48Z" fill="#718EBF"/>
<path d="M292 84C292 82.3431 293.343 81 295 81H309C310.657 81 312 82.3431 312 84V127H292V84Z" fill="#049DD9"/>
<defs>
<filter id="filter0_bdddddd_259_136" x="0.90284" y="-62" width="419.194" height="417.219" filterUnits="userSpaceOnUse" color-interpolation-filters="sRGB">
<feFlood flood-opacity="0" result="BackgroundImageFix"/>
<feGaussianBlur in="BackgroundImageFix" stdDeviation="32"/>
<feComposite in2="SourceAlpha" operator="in" result="effect1_backgroundBlur_259_136"/>
<feColorMatrix in="SourceAlpha" type="matrix" values="0 0 0 0 0 0 0 0 0 0 0 0 0 0 0 0 0 0 127 0" result="hardAlpha"/>
<feOffset dy="2.03929"/>
<feGaussianBlur stdDeviation="1.73339"/>
<feColorMatrix type="matrix" values="0 0 0 0 0 0 0 0 0 0 0 0 0 0 0 0 0 0 0.01 0"/>
<feBlend mode="normal" in2="effect1_backgroundBlur_259_136" result="effect2_dropShadow_259_136"/>
<feColorMatrix in="SourceAlpha" type="matrix" values="0 0 0 0 0 0 0 0 0 0 0 0 0 0 0 0 0 0 127 0" result="hardAlpha"/>
<feOffset dy="8.97286"/>
<feGaussianBlur stdDeviation="3.58914"/>
<feColorMatrix type="matrix" values="0 0 0 0 0 0 0 0 0 0 0 0 0 0 0 0 0 0 0.0117778 0"/>
<feBlend mode="normal" in2="effect2_dropShadow_259_136" result="effect3_dropShadow_259_136"/>
<feColorMatrix in="SourceAlpha" type="matrix" values="0 0 0 0 0 0 0 0 0 0 0 0 0 0 0 0 0 0 127 0" result="hardAlpha"/>
<feOffset dy="22.0243"/>
<feGaussianBlur stdDeviation="7.15789"/>
<feColorMatrix type="matrix" values="0 0 0 0 0 0 0 0 0 0 0 0 0 0 0 0 0 0 0.015 0"/>
<feBlend mode="normal" in2="effect3_dropShadow_259_136" result="effect4_dropShadow_259_136"/>
<feColorMatrix in="SourceAlpha" type="matrix" values="0 0 0 0 0 0 0 0 0 0 0 0 0 0 0 0 0 0 127 0" result="hardAlpha"/>
<feOffset dy="42.4172"/>
<feGaussianBlur stdDeviation="14.0303"/>
<feColorMatrix type="matrix" values="0 0 0 0 0 0 0 0 0 0 0 0 0 0 0 0 0 0 0.0182222 0"/>
<feBlend mode="normal" in2="effect4_dropShadow_259_136" result="effect5_dropShadow_259_136"/>
<feColorMatrix in="SourceAlpha" type="matrix" values="0 0 0 0 0 0 0 0 0 0 0 0 0 0 0 0 0 0 127 0" result="hardAlpha"/>
<feOffset dy="71.375"/>
<feGaussianBlur stdDeviation="25.797"/>
<feColorMatrix type="matrix" values="0 0 0 0 0 0 0 0 0 0 0 0 0 0 0 0 0 0 0.0227778 0"/>
<feBlend mode="normal" in2="effect5_dropShadow_259_136" result="effect6_dropShadow_259_136"/>
<feColorMatrix in="SourceAlpha" type="matrix" values="0 0 0 0 0 0 0 0 0 0 0 0 0 0 0 0 0 0 127 0" result="hardAlpha"/>
<feOffset dy="110.121"/>
<feGaussianBlur stdDeviation="44.0486"/>
<feColorMatrix type="matrix" values="0 0 0 0 0 0 0 0 0 0 0 0 0 0 0 0 0 0 0.03 0"/>
<feBlend mode="normal" in2="effect6_dropShadow_259_136" result="effect7_dropShadow_259_136"/>
<feBlend mode="normal" in="SourceGraphic" in2="effect7_dropShadow_259_136" result="shape"/>
</filter>
</defs>
</svg>
