<svg width="730" height="710" viewBox="0 0 730 710" fill="none" xmlns="http://www.w3.org/2000/svg">
<rect opacity="0.1" width="1460.89" height="710" rx="22.1565" fill="#049DD9"/>
<mask id="mask0_229_165" style="mask-type:alpha" maskUnits="userSpaceOnUse" x="0" y="0" width="1461" height="710">
<rect width="1460.89" height="710" fill="#EDFBFF"/>
</mask>
<g mask="url(#mask0_229_165)">
<path d="M-17.9019 69.5361C38.1942 35.134 203.021 -42.4536 413.561 -77.5877M1518.18 155.175C1433.44 142 1235.31 112.722 1120.73 101.01C977.506 86.3711 886.2 -32.2062 1317.66 -131.021M1489.53 467.722C1446.56 525.302 1300.48 612.942 966.764 529.206M1523.55 576.783C1490.73 598.498 1370.66 637.682 1152.96 620.701M895.152 620.701C985.86 653.883 1257.51 729.324 1489.53 677.794M519.188 606.794C514.414 629.728 570.391 685.845 832.491 726.835M359.852 742.206C312.707 715.124 205.528 650.126 153.967 606.794C89.5162 552.629 -17.9019 216.66 359.852 155.175" stroke="#0F2441" stroke-width="2.21565"/>
</g>
</svg>
